<?xml version="1.0" standalone="no"?>
<!DOCTYPE svg PUBLIC "-//W3C//DTD SVG 20010904//EN"
 "http://www.w3.org/TR/2001/REC-SVG-20010904/DTD/svg10.dtd">
<svg version="1.0" xmlns="http://www.w3.org/2000/svg"
 width="863.000000pt" height="793.000000pt" viewBox="0 0 863.000000 793.000000"
 preserveAspectRatio="xMidYMid meet">

<g transform="translate(0.000000,793.000000) scale(0.100000,-0.100000)"
fill="#000000" stroke="none">
<path d="M4194 6799 c-614 -32 -1208 -260 -1696 -652 -563 -451 -956 -1144
-1063 -1872 -61 -417 -25 -875 101 -1292 245 -811 848 -1488 1634 -1836 361
-160 710 -241 1100 -254 399 -13 819 56 1172 193 265 102 586 290 818 477 120
96 342 321 443 447 370 461 596 1029 647 1629 l10 124 44 41 c54 50 72 105 56
166 -13 47 -51 95 -93 117 -39 20 -115 20 -155 -1 -109 -56 -123 -218 -26
-293 33 -24 34 -28 34 -92 0 -92 -26 -289 -56 -434 -115 -544 -380 -1031 -779
-1433 -442 -446 -977 -717 -1608 -815 -193 -30 -524 -37 -727 -15 -359 39
-645 123 -975 286 -304 150 -530 313 -770 554 -450 453 -724 1012 -817 1666
-21 149 -18 625 5 770 56 357 170 701 328 986 353 637 929 1122 1608 1355 314
108 595 153 951 153 469 -1 847 -85 1249 -280 340 -165 573 -332 846 -608 102
-103 112 -112 47 -40 -347 386 -816 681 -1335 838 -307 93 -651 133 -993 115z"/>
<path d="M6615 5730 c10 -11 20 -20 23 -20 3 0 -3 9 -13 20 -10 11 -20 20 -23
20 -3 0 3 -9 13 -20z"/>
<path d="M6650 5686 c0 -2 8 -10 18 -17 15 -13 16 -12 3 4 -13 16 -21 21 -21
13z"/>
<path d="M6680 5646 c0 -2 8 -10 18 -17 15 -13 16 -12 3 4 -13 16 -21 21 -21
13z"/>
<path d="M4517 5442 c-15 -16 -13 -17 28 -14 62 5 201 -15 277 -39 76 -25 176
-82 240 -138 29 -26 49 -37 53 -31 10 16 -16 42 -99 98 -124 86 -194 113 -346
131 -115 15 -134 14 -153 -7z"/>
<path d="M4340 5432 c-42 -10 -73 -21 -70 -27 6 -12 31 -11 133 8 93 17 125
38 57 36 -25 0 -79 -8 -120 -17z"/>
<path d="M3648 5424 c-16 -18 -13 -19 90 -20 72 -1 137 -8 198 -23 92 -22 142
-47 116 -58 -37 -15 -112 -87 -131 -125 -26 -54 -26 -90 -2 -143 53 -116 210
-151 305 -67 33 29 56 93 56 157 0 77 -21 61 -23 -18 -3 -94 -62 -151 -156
-153 -32 0 -64 -4 -71 -9 -8 -5 -11 -4 -7 2 4 6 -9 23 -28 37 -66 51 -84 128
-44 193 23 37 106 108 139 118 26 8 77 -23 124 -75 39 -44 46 -47 46 -25 0 19
-66 92 -91 100 -34 11 -20 31 37 51 44 16 53 22 42 31 -10 9 -29 5 -80 -16
l-66 -28 -44 19 c-65 29 -191 56 -298 64 -85 6 -97 4 -112 -12z"/>
<path d="M3523 5415 c-72 -16 -88 -24 -76 -36 12 -12 153 19 173 37 12 12 11
14 -10 13 -14 0 -53 -7 -87 -14z"/>
<path d="M3304 5331 c-61 -31 -128 -70 -150 -86 -127 -95 -211 -183 -200 -212
5 -12 14 -5 40 28 67 89 247 220 369 271 86 36 81 33 65 46 -10 8 -41 -4 -124
-47z"/>
<path d="M5126 5211 c-5 -8 2 -23 18 -40 14 -15 26 -32 26 -37 0 -6 -21 -16
-47 -23 -79 -20 -164 -71 -197 -118 -39 -56 -47 -141 -18 -193 56 -101 241
-106 314 -9 66 88 76 166 33 257 -14 30 -25 56 -25 58 0 2 34 4 76 4 69 0 75
2 63 16 -11 13 -27 15 -84 11 l-70 -5 -41 46 c-29 33 -43 42 -48 33z m94 -143
c54 -90 44 -194 -26 -264 -76 -76 -168 -81 -236 -14 -33 33 -38 44 -38 85 0
90 65 163 184 205 75 27 93 25 116 -12z"/>
<path d="M5400 5115 c7 -8 20 -15 29 -15 37 0 139 -33 218 -70 49 -23 85 -35
89 -29 3 6 -2 17 -12 24 -43 33 -260 104 -318 105 -15 0 -16 -3 -6 -15z"/>
<path d="M2930 5022 c0 -6 -25 -16 -55 -22 -92 -19 -209 -84 -290 -161 -84
-80 -133 -145 -119 -159 6 -6 26 12 53 49 81 112 245 224 348 238 l38 5 -4
-53 c-4 -62 11 -119 39 -144 31 -29 34 -11 6 38 -40 67 -32 162 14 169 21 3
21 3 -4 27 -14 14 -26 20 -26 13z"/>
<path d="M2990 4995 c7 -8 22 -15 35 -15 12 0 43 -11 68 -24 45 -22 57 -23 57
-4 0 15 -103 58 -139 58 -29 0 -32 -2 -21 -15z"/>
<path d="M5746 4991 c-3 -4 17 -22 44 -40 112 -73 220 -222 270 -374 15 -47
25 -66 32 -59 27 27 -56 213 -142 320 -47 58 -166 161 -187 162 -6 0 -14 -4
-17 -9z"/>
<path d="M3157 4933 c-4 -5 3 -27 13 -49 11 -21 20 -51 20 -66 0 -15 4 -29 9
-33 14 -8 24 32 17 68 -7 37 -50 95 -59 80z"/>
<path d="M3156 4760 c-28 -29 -80 -35 -129 -16 -27 10 -44 13 -51 6 -15 -15
55 -40 111 -40 51 0 118 31 111 52 -7 19 -22 18 -42 -2z"/>
<path d="M3652 4725 c-61 -13 -205 -78 -246 -110 -14 -11 -17 -18 -9 -26 8 -8
26 -1 64 25 74 49 168 85 239 93 67 7 107 34 49 32 -19 0 -62 -7 -97 -14z"/>
<path d="M3791 4726 c-9 -11 0 -14 50 -20 109 -11 210 -62 385 -193 54 -40
104 -71 112 -68 7 3 12 -1 10 -9 -2 -8 24 -33 57 -56 l60 -41 -76 73 c-138
133 -317 253 -436 292 -94 32 -148 39 -162 22z"/>
<path d="M2416 4623 c-49 -97 -78 -212 -84 -325 -4 -101 2 -167 15 -154 3 3 7
59 8 123 2 131 27 228 85 332 28 50 31 71 10 71 -6 0 -20 -21 -34 -47z"/>
<path d="M5095 4590 c-8 -13 6 -17 85 -24 36 -3 75 -7 87 -9 12 -1 23 3 23 8
3 23 -182 47 -195 25z"/>
<path d="M3291 4514 c-86 -92 -141 -181 -175 -286 -28 -83 -35 -173 -13 -166
7 3 14 31 18 70 10 114 110 293 219 391 45 41 57 67 30 67 -4 0 -40 -34 -79
-76z"/>
<path d="M4988 4575 c-62 -17 -166 -66 -223 -105 -25 -17 -76 -63 -113 -101
l-68 -69 -57 34 c-66 40 -64 18 2 -29 23 -15 41 -34 41 -42 0 -10 6 -12 19 -8
12 3 40 -4 68 -18 65 -33 219 -81 238 -73 30 11 14 22 -56 39 -75 18 -219 74
-219 85 0 13 65 81 120 127 89 75 245 145 323 145 25 0 28 2 17 15 -15 18 -29
18 -92 0z"/>
<path d="M5307 4553 c-11 -11 -8 -23 6 -23 18 0 71 -57 92 -99 17 -34 17 -82
-1 -138 -9 -31 10 -29 24 2 16 35 15 108 -2 150 -13 31 -90 115 -106 115 -3 0
-10 -3 -13 -7z"/>
<path d="M6093 4499 c-13 -17 -5 -75 13 -90 12 -9 14 -5 13 22 -1 19 -4 45 -8
58 -5 19 -8 21 -18 10z"/>
<path d="M5829 4406 c-99 -27 -169 -116 -169 -216 0 -30 4 -61 9 -69 17 -26
28 -2 23 52 -10 129 102 233 228 212 24 -4 41 -2 45 5 9 15 7 17 -45 23 -25 3
-66 0 -91 -7z"/>
<path d="M5980 4385 c-10 -12 -10 -15 4 -15 9 0 39 -12 67 -26 l51 -25 -7 -52
c-16 -110 -56 -179 -128 -221 -86 -50 -164 -42 -229 24 -28 28 -40 34 -48 25
-12 -14 37 -64 88 -90 47 -23 130 -21 180 4 82 42 162 161 162 242 0 66 35 43
133 -86 33 -44 74 -108 90 -143 19 -41 33 -60 39 -54 25 25 -94 217 -188 308
-35 33 -64 68 -64 76 0 8 -9 23 -19 32 -19 17 -19 17 -14 -3 6 -25 1 -26 -35
-7 -49 24 -69 27 -82 11z"/>
<path d="M3455 4266 c-78 -24 -139 -72 -235 -183 -35 -40 -67 -73 -72 -73 -6
0 -12 9 -15 20 -3 11 -9 20 -12 20 -23 0 -12 -17 44 -71 60 -57 64 -60 126
-65 118 -11 282 46 347 120 73 83 65 182 -18 224 -49 25 -104 27 -165 8z m155
-31 c81 -42 62 -149 -38 -218 -63 -44 -167 -77 -244 -77 -67 0 -148 23 -148
42 0 17 87 124 140 171 99 89 214 121 290 82z"/>
<path d="M5351 4244 c-13 -13 -49 -34 -80 -46 -48 -19 -77 -22 -199 -23 -160
-2 -212 -18 -96 -30 96 -11 229 0 300 25 68 23 131 70 120 88 -10 16 -17 14
-45 -14z"/>
<path d="M4507 4151 l-47 -98 -137 -6 c-147 -6 -238 -21 -371 -64 -71 -24
-161 -77 -149 -89 2 -2 37 11 78 30 137 63 299 96 466 96 87 0 104 -3 100 -14
-3 -8 -17 -74 -31 -148 -14 -73 -30 -148 -35 -165 -6 -20 -6 -33 0 -33 5 0 9
-8 10 -17 1 -28 27 73 44 172 9 50 21 114 27 144 l12 54 65 -7 c82 -7 238 -49
310 -82 30 -13 56 -23 58 -20 12 11 -68 59 -135 80 -82 26 -218 56 -251 56
-11 0 -22 4 -25 9 -7 10 37 113 65 152 15 22 16 29 5 38 -10 9 -22 -9 -59 -88z"/>
<path d="M2483 4161 c-29 -10 -62 -26 -75 -35 -29 -20 -38 -20 -38 0 0 14 -3
14 -15 4 -9 -7 -13 -21 -10 -31 4 -12 -4 -32 -19 -52 -14 -19 -26 -39 -26 -45
0 -20 19 -13 36 13 9 14 19 25 23 25 3 0 14 -20 24 -45 78 -188 319 -237 389
-78 14 33 17 55 12 89 -19 132 -163 206 -301 155z m188 -34 c78 -41 112 -145
69 -214 -25 -41 -68 -63 -122 -63 -89 1 -160 55 -213 165 l-28 57 24 19 c75
58 196 74 270 36z"/>
<path d="M3121 3992 c10 -16 3 -31 -40 -94 -90 -133 -135 -267 -134 -403 1
-98 15 -154 47 -184 l25 -24 -20 54 c-32 84 -36 179 -10 278 37 147 143 340
179 326 9 -3 1 10 -17 29 -39 40 -47 45 -30 18z"/>
<path d="M2270 3938 c-32 -125 -7 -283 65 -403 45 -75 105 -139 119 -125 6 6
-7 27 -36 58 -99 106 -152 277 -128 413 16 88 17 101 4 106 -5 2 -16 -20 -24
-49z"/>
<path d="M6385 3951 c-3 -6 4 -43 16 -83 30 -103 38 -328 15 -418 -9 -36 -26
-80 -37 -98 -20 -35 -17 -61 6 -42 7 6 24 37 39 70 49 108 51 314 5 491 -22
85 -31 101 -44 80z"/>
<path d="M4930 3905 c14 -15 48 -38 75 -52 28 -14 99 -55 158 -91 98 -59 130
-71 113 -43 -11 16 -175 115 -277 166 -85 43 -92 45 -69 20z"/>
<path d="M3710 3859 c-41 -28 -87 -62 -101 -75 -29 -28 -84 -122 -76 -130 3
-3 24 19 46 50 23 30 71 79 109 109 61 49 111 97 101 97 -2 0 -38 -23 -79 -51z"/>
<path d="M5293 3699 c-8 -8 35 -45 160 -135 95 -68 200 -145 235 -170 39 -28
69 -43 79 -40 11 5 -16 29 -93 84 -278 200 -340 245 -355 258 -11 10 -18 11
-26 3z"/>
<path d="M3536 3631 c-4 -7 -5 -15 -2 -18 9 -9 19 4 14 18 -4 11 -6 11 -12 0z"/>
<path d="M3523 3556 c9 -60 50 -138 96 -178 41 -36 119 -73 176 -83 l40 -7
-19 21 c-11 12 -31 21 -45 21 -35 0 -122 51 -155 91 -36 43 -66 103 -66 132 0
14 -7 31 -17 38 -15 13 -16 10 -10 -35z"/>
<path d="M4264 3472 c-17 -9 -52 -31 -79 -49 -85 -57 -191 -96 -278 -101 -64
-4 -75 -7 -66 -18 42 -51 312 39 424 140 52 47 52 57 -1 28z"/>
<path d="M5105 3444 c-50 -9 -87 -22 -99 -34 -19 -19 -19 -19 0 -15 105 23
196 37 243 37 57 1 124 -15 149 -35 26 -21 21 1 -7 27 -27 26 -37 29 -118 32
-52 2 -121 -3 -168 -12z"/>
<path d="M4565 3402 c-28 -10 -64 -27 -80 -39 -44 -31 -94 -121 -107 -192
l-12 -61 -91 6 c-95 7 -225 -2 -225 -15 0 -4 70 -8 156 -8 85 -1 158 -3 161
-6 2 -3 9 -25 14 -49 13 -53 59 -158 70 -158 14 0 10 21 -16 85 -13 33 -25 72
-25 88 0 33 14 34 130 11 72 -15 104 -14 88 1 -3 3 -45 13 -94 21 -49 9 -100
18 -113 21 -22 4 -23 7 -17 51 9 64 51 147 90 177 65 49 106 57 297 56 145 -1
179 2 189 14 20 24 -345 21 -415 -3z"/>
<path d="M5520 3318 c58 -57 108 -102 113 -100 26 12 -100 145 -174 182 -40
21 -35 14 61 -82z"/>
<path d="M2465 3400 c-15 -25 192 -99 278 -100 54 0 26 17 -53 33 -45 8 -110
29 -147 46 -74 35 -70 34 -78 21z"/>
<path d="M5776 3343 c-14 -14 179 -118 259 -139 108 -29 229 -10 298 47 30 25
35 34 26 45 -10 12 -14 11 -26 -6 -45 -64 -191 -88 -315 -50 -70 21 -191 81
-204 101 -6 11 -28 12 -38 2z"/>
<path d="M2999 3265 c39 -71 58 -92 73 -77 10 10 2 22 -41 65 l-54 52 22 -40z"/>
<path d="M5636 3201 c-3 -5 1 -11 9 -15 8 -3 15 -1 15 4 0 13 -18 22 -24 11z"/>
<path d="M3075 3170 c-6 -10 121 -110 140 -110 6 0 -18 27 -52 60 -61 60 -76
69 -88 50z"/>
<path d="M5635 3165 c48 -126 12 -273 -85 -340 -70 -49 -196 -68 -292 -46 -30
7 -40 5 -50 -7 -11 -13 -11 -14 0 -8 7 4 18 3 25 -3 7 -5 42 -13 78 -17 217
-22 372 106 373 308 1 73 -1 79 -28 105 -23 23 -27 24 -21 8z"/>
<path d="M3913 3081 c-59 -15 -110 -34 -120 -45 -17 -17 -17 -18 7 -10 14 4
74 19 134 33 82 20 105 29 95 37 -10 7 -43 3 -116 -15z"/>
<path d="M3247 3060 c51 -46 154 -64 335 -58 116 5 154 9 174 23 14 9 24 18
22 20 -2 3 -35 -1 -73 -6 -38 -6 -132 -9 -209 -7 -121 4 -151 9 -211 31 l-70
26 32 -29z"/>
<path d="M4640 3045 c-10 -12 -9 -15 4 -15 21 0 110 -45 245 -123 120 -68 232
-123 276 -133 l30 -7 -19 22 c-11 11 -24 21 -31 21 -18 0 -203 92 -266 133
-52 33 -211 117 -222 117 -2 0 -10 -7 -17 -15z"/>
<path d="M4465 2870 c-20 -32 133 -198 292 -316 62 -46 117 -84 123 -84 25 0
3 22 -102 101 -133 100 -186 151 -255 242 -29 38 -54 63 -58 57z"/>
<path d="M4896 2462 c-3 -5 23 -37 57 -73 75 -78 114 -155 136 -266 19 -93 41
-131 41 -72 0 110 -71 268 -163 367 -50 52 -61 59 -71 44z"/>
<path d="M5100 1978 c0 -24 -6 -68 -14 -98 -8 -30 -13 -56 -12 -58 2 -1 11 7
20 17 34 37 47 149 21 171 -13 11 -15 6 -15 -32z"/>
<path d="M5075 1800 c-10 -11 -13 -20 -8 -20 13 0 38 29 31 35 -3 3 -13 -4
-23 -15z"/>
</g>
</svg>
